<?xml version="1.0" standalone="no"?>
<!DOCTYPE svg PUBLIC "-//W3C//DTD SVG 20010904//EN"
 "http://www.w3.org/TR/2001/REC-SVG-20010904/DTD/svg10.dtd">
<svg version="1.0" xmlns="http://www.w3.org/2000/svg"
 width="1500.000000pt" height="1500.000000pt" viewBox="0 0 1500.000000 1500.000000"
 preserveAspectRatio="xMidYMid meet">
<metadata>
Created by potrace 1.14, written by Peter Selinger 2001-2017
</metadata>
<g transform="translate(0.000000,1500.000000) scale(0.100000,-0.100000)"
fill="#000000" stroke="none">
<path d="M3059 13001 c-30 -10 -73 -29 -94 -44 -21 -14 -198 -183 -393 -374
l-355 -348 -323 -486 c-178 -267 -326 -494 -329 -505 -4 -10 -157 -320 -341
-689 -186 -374 -336 -685 -338 -705 -2 -19 -9 -57 -15 -85 -6 -27 -13 -61 -15
-75 -2 -14 -9 -45 -15 -70 -5 -25 -12 -58 -15 -75 -3 -16 -15 -73 -26 -125
-22 -101 -68 -318 -76 -360 -2 -14 -9 -45 -14 -70 -5 -25 -12 -56 -14 -70 -2
-14 -21 -104 -41 -200 -21 -96 -38 -182 -40 -190 -2 -8 -17 -82 -34 -165 l-30
-150 2 -720 c2 -396 6 -731 10 -745 4 -14 14 -61 22 -105 9 -44 20 -95 25
-115 5 -19 11 -51 14 -70 3 -19 12 -64 20 -100 8 -36 18 -81 21 -100 3 -19 8
-42 10 -50 2 -8 7 -29 10 -47 3 -17 19 -96 35 -175 17 -79 32 -154 35 -168 7
-39 14 -73 20 -100 3 -14 7 -34 9 -45 24 -120 70 -342 81 -388 7 -31 13 -60
14 -62 5 -66 33 -126 483 -1030 l214 -430 321 -480 321 -480 146 -150 c388
-396 584 -589 616 -605 112 -56 206 -62 301 -18 117 54 184 159 184 288 0 64
-5 85 -33 142 -29 60 -70 104 -360 395 l-328 328 -139 210 c-76 116 -214 324
-307 463 -167 251 -170 257 -474 870 -275 552 -309 626 -326 707 -19 90 -204
998 -213 1045 -2 14 -23 113 -45 220 l-40 195 0 617 0 618 41 197 c22 109 55
275 74 368 19 94 51 249 71 345 19 96 38 186 40 200 5 28 22 115 29 145 2 11
16 81 31 155 l28 134 191 386 c106 212 243 489 305 615 106 214 136 263 418
685 l304 455 326 334 c180 183 338 349 351 369 13 19 32 60 43 91 81 228 -158
466 -393 392z"/>
<path d="M11750 13004 c-142 -38 -250 -170 -250 -309 0 -51 30 -137 63 -183
13 -17 168 -179 345 -359 l321 -328 147 -220 c81 -121 217 -323 302 -450 165
-245 167 -247 610 -1130 l180 -360 31 -150 c17 -82 32 -161 35 -175 2 -14 25
-128 51 -255 26 -126 49 -238 51 -248 2 -10 5 -26 8 -35 3 -9 7 -33 10 -52 3
-19 19 -102 36 -185 18 -82 33 -159 36 -170 2 -11 6 -31 9 -45 3 -14 7 -36 10
-50 8 -41 15 -74 22 -100 4 -14 9 -312 10 -664 l4 -638 -46 -222 c-25 -121
-52 -251 -60 -288 -8 -36 -17 -83 -21 -103 -3 -21 -7 -45 -9 -54 -2 -9 -26
-128 -54 -266 -63 -306 -53 -259 -94 -455 l-34 -165 -155 -305 c-85 -168 -226
-447 -313 -620 -87 -172 -162 -319 -167 -325 -5 -5 -143 -212 -306 -460 l-298
-450 -316 -316 c-384 -384 -411 -421 -404 -568 4 -83 39 -154 102 -209 73 -65
126 -86 219 -86 71 -1 87 3 147 32 72 36 81 44 368 342 96 100 219 227 273
283 104 107 129 143 602 842 70 105 150 220 177 256 26 37 48 69 48 71 0 3 63
135 141 294 78 159 176 361 219 449 42 88 126 259 185 380 108 219 108 220
142 385 18 91 35 183 38 204 3 21 8 42 10 46 2 4 7 22 10 41 3 19 17 88 30
154 35 174 35 175 46 239 5 33 12 62 14 65 1 3 6 22 9 41 3 19 12 68 20 107 9
40 18 87 21 105 3 17 25 129 49 247 l44 216 0 710 0 710 -49 245 c-27 135 -51
254 -53 265 -2 11 -11 54 -19 95 -9 41 -18 86 -21 100 -19 103 -179 893 -187
923 -5 21 -158 337 -339 703 -182 366 -330 669 -330 673 0 4 -20 35 -45 69
-25 34 -45 64 -45 68 0 3 -6 11 -12 19 -7 7 -141 203 -298 436 l-285 424 -340
343 c-187 189 -358 354 -380 367 -94 56 -177 71 -265 49z"/>
<path d="M5040 6524 c-66 -24 -82 -38 -294 -247 -173 -172 -196 -198 -217
-252 -17 -44 -23 -81 -23 -136 0 -65 4 -84 31 -140 27 -54 60 -92 213 -238
213 -206 226 -216 305 -240 96 -30 195 -15 280 43 17 11 113 103 213 204 157
157 188 193 215 250 44 92 43 161 -3 258 -29 59 -60 96 -223 261 -161 162
-199 196 -251 219 -76 35 -178 42 -246 18z"/>
<path d="M7381 6523 c-68 -23 -81 -34 -292 -243 -176 -175 -199 -201 -220
-255 -36 -93 -33 -192 8 -276 27 -54 61 -92 217 -243 102 -98 195 -186 207
-194 12 -8 50 -25 86 -37 80 -28 141 -27 225 6 57 22 80 41 261 222 171 171
203 207 230 265 43 91 42 162 -4 259 -27 58 -60 96 -218 256 -219 222 -259
249 -381 253 -48 2 -91 -3 -119 -13z"/>
<path d="M9715 6524 c-73 -25 -87 -37 -291 -239 -181 -180 -204 -206 -225
-260 -16 -43 -23 -81 -23 -135 -1 -65 3 -84 31 -140 27 -55 60 -92 213 -240
100 -96 197 -185 216 -198 44 -29 99 -49 162 -57 56 -7 153 20 207 58 16 12
111 103 211 203 153 152 186 191 215 250 45 92 46 160 1 257 -27 58 -56 93
-222 261 -163 165 -201 198 -254 222 -71 33 -176 40 -241 18z"/>
</g>
</svg>
